solid OpenSCAD_Model
  facet normal -1 0 0
    outer loop
      vertex 7 -11.2 9
      vertex 7 -0.7 14
      vertex 7 -0.7 9
    endloop
  endfacet
  facet normal -1 -0 0
    outer loop
      vertex 7 -0.7 14
      vertex 7 -11.2 9
      vertex 7 -11.2 14
    endloop
  endfacet
  facet normal 1 -0 0
    outer loop
      vertex 7 -19.7 14
      vertex 7 -18.5579 9
      vertex 7 -18.5579 14
    endloop
  endfacet
  facet normal 1 0 0
    outer loop
      vertex 7 -18.5579 9
      vertex 7 -19.7 14
      vertex 7 -19.7 9
    endloop
  endfacet
  facet normal 0 1 0
    outer loop
      vertex 20.8547 -17.7 9
      vertex 32.5 -17.7 10.9
      vertex 32.5 -17.7 9
    endloop
  endfacet
  facet normal 0 1 0
    outer loop
      vertex 32.5 -17.7 10.9
      vertex 20.8547 -17.7 9
      vertex 11.5 -17.7 10.9
    endloop
  endfacet
  facet normal 0 1 -0
    outer loop
      vertex 13.4453 -17.7 9
      vertex 11.5 -17.7 10.9
      vertex 20.8547 -17.7 9
    endloop
  endfacet
  facet normal 0 1 0
    outer loop
      vertex 11.5 -17.7 10.9
      vertex 13.4453 -17.7 9
      vertex 11.5 -17.7 9
    endloop
  endfacet
  facet normal 0 1 -0
    outer loop
      vertex 32.5 -17.7 10.9
      vertex 27 -17.7 14
      vertex 35 -17.7 14
    endloop
  endfacet
  facet normal 0 1 0
    outer loop
      vertex 27 -17.7 14
      vertex 32.5 -17.7 10.9
      vertex 27 -17.7 11.5
    endloop
  endfacet
  facet normal 0 1 0
    outer loop
      vertex 32.5 -17.7 10.9
      vertex 35 -17.7 14
      vertex 35 -17.7 10.9
    endloop
  endfacet
  facet normal 0 1 0
    outer loop
      vertex 11.5 -17.7 10.9
      vertex 17 -17.7 14
      vertex 17 -17.7 11.5
    endloop
  endfacet
  facet normal 0 1 0
    outer loop
      vertex 27 -17.7 11.5
      vertex 32.5 -17.7 10.9
      vertex 17 -17.7 11.5
    endloop
  endfacet
  facet normal 0 1 0
    outer loop
      vertex 11.5 -17.7 10.9
      vertex 17 -17.7 11.5
      vertex 32.5 -17.7 10.9
    endloop
  endfacet
  facet normal 0 1 0
    outer loop
      vertex 17 -17.7 14
      vertex 11.5 -17.7 10.9
      vertex 9 -17.7 14
    endloop
  endfacet
  facet normal 0 1 0
    outer loop
      vertex 9 -17.7 14
      vertex 11.5 -17.7 10.9
      vertex 9 -17.7 10.9
    endloop
  endfacet
  facet normal 0 -1 0
    outer loop
      vertex 8.14214 -19.7 14
      vertex 17 -19.7 11.5
      vertex 17 -19.7 14
    endloop
  endfacet
  facet normal 0 -1 -0
    outer loop
      vertex 17 -19.7 11.5
      vertex 8.14214 -19.7 9
      vertex 27 -19.7 11.5
    endloop
  endfacet
  facet normal 0 -1 0
    outer loop
      vertex 8.14214 -19.7 9
      vertex 17 -19.7 11.5
      vertex 8.14214 -19.7 14
    endloop
  endfacet
  facet normal 0 -1 0
    outer loop
      vertex 27 -19.7 11.5
      vertex 36 -19.7 14
      vertex 27 -19.7 14
    endloop
  endfacet
  facet normal 0 -1 0
    outer loop
      vertex 27 -19.7 11.5
      vertex 36 -19.7 9
      vertex 36 -19.7 14
    endloop
  endfacet
  facet normal 0 -1 0
    outer loop
      vertex 36 -19.7 9
      vertex 27 -19.7 11.5
      vertex 8.14214 -19.7 9
    endloop
  endfacet
  facet normal 1 -0 0
    outer loop
      vertex 37 -18.7 14
      vertex 37 -0.7 9
      vertex 37 -0.7 14
    endloop
  endfacet
  facet normal 1 0 0
    outer loop
      vertex 37 -0.7 9
      vertex 37 -18.7 14
      vertex 37 -18.7 9
    endloop
  endfacet
  facet normal 0 0 1
    outer loop
      vertex -37 -11.2 14
      vertex -39.5 -11.2 14
      vertex -37 -17.7 14
    endloop
  endfacet
  facet normal -0 0 1
    outer loop
      vertex 7 -11.2 14
      vertex 9 -17.7 14
      vertex 9 -0.7 14
    endloop
  endfacet
  facet normal 0 0 1
    outer loop
      vertex 7 -11.2 14
      vertex 9 -0.7 14
      vertex 7 -0.7 14
    endloop
  endfacet
  facet normal 0 0 1
    outer loop
      vertex 7 -18.5579 14
      vertex 9 -17.7 14
      vertex 7 -11.2 14
    endloop
  endfacet
  facet normal 0 0 1
    outer loop
      vertex 9 -17.7 14
      vertex 7 -18.5579 14
      vertex 8.14214 -19.7 14
    endloop
  endfacet
  facet normal -0 0 1
    outer loop
      vertex -5 -11.2 14
      vertex 7 -18.5579 14
      vertex 7 -11.2 14
    endloop
  endfacet
  facet normal 0 0 1
    outer loop
      vertex 7 -18.5579 14
      vertex -5 -11.2 14
      vertex -5 -18.7 14
    endloop
  endfacet
  facet normal 0 0 1
    outer loop
      vertex 7 -18.5579 14
      vertex -5 -18.7 14
      vertex 7 -19.7 14
    endloop
  endfacet
  facet normal 0 0 1
    outer loop
      vertex 7 -19.7 14
      vertex -5 -18.7 14
      vertex -5 -19.7 14
    endloop
  endfacet
  facet normal -0 0 1
    outer loop
      vertex 9 -17.7 14
      vertex 17 -19.7 14
      vertex 17 -17.7 14
    endloop
  endfacet
  facet normal 0 0 1
    outer loop
      vertex 17 -19.7 14
      vertex 9 -17.7 14
      vertex 8.14214 -19.7 14
    endloop
  endfacet
  facet normal 0 0 1
    outer loop
      vertex -7 -11.2 14
      vertex -5 -11.2 14
      vertex -5 -0.7 14
    endloop
  endfacet
  facet normal 0 0 1
    outer loop
      vertex -5 -11.2 14
      vertex -7 -11.2 14
      vertex -5 -18.7 14
    endloop
  endfacet
  facet normal 0 0 1
    outer loop
      vertex -7 -11.2 14
      vertex -5 -0.7 14
      vertex -7 -0.7 14
    endloop
  endfacet
  facet normal -0 0 1
    outer loop
      vertex -9.5 -17.7 14
      vertex -5 -18.7 14
      vertex -7 -11.2 14
    endloop
  endfacet
  facet normal 0 0 1
    outer loop
      vertex -9.5 -17.7 14
      vertex -7 -11.2 14
      vertex -9.5 -11.2 14
    endloop
  endfacet
  facet normal 0 0 1
    outer loop
      vertex -5 -18.7 14
      vertex -9.5 -17.7 14
      vertex -6 -19.7 14
    endloop
  endfacet
  facet normal 0 0 1
    outer loop
      vertex -40.3579 -19.7 14
      vertex -9.5 -17.7 14
      vertex -37 -17.7 14
    endloop
  endfacet
  facet normal 0 0 1
    outer loop
      vertex -9.5 -17.7 14
      vertex -40.3579 -19.7 14
      vertex -6 -19.7 14
    endloop
  endfacet
  facet normal 0 0 1
    outer loop
      vertex -41.5 -18.5579 14
      vertex -37 -17.7 14
      vertex -39.5 -11.2 14
    endloop
  endfacet
  facet normal -0 0 1
    outer loop
      vertex -41.5 -0.7 14
      vertex -39.5 -11.2 14
      vertex -39.5 -0.7 14
    endloop
  endfacet
  facet normal 0 0 1
    outer loop
      vertex -39.5 -11.2 14
      vertex -41.5 -0.7 14
      vertex -41.5 -18.5579 14
    endloop
  endfacet
  facet normal 0 0 1
    outer loop
      vertex -37 -17.7 14
      vertex -41.5 -18.5579 14
      vertex -40.3579 -19.7 14
    endloop
  endfacet
  facet normal -0 0 1
    outer loop
      vertex 35 -17.7 14
      vertex 37 -18.7 14
      vertex 37 -0.7 14
    endloop
  endfacet
  facet normal 0 0 1
    outer loop
      vertex 35 -17.7 14
      vertex 37 -0.7 14
      vertex 35 -0.7 14
    endloop
  endfacet
  facet normal 0 0 1
    outer loop
      vertex 37 -18.7 14
      vertex 35 -17.7 14
      vertex 36 -19.7 14
    endloop
  endfacet
  facet normal 0 0 1
    outer loop
      vertex 27 -19.7 14
      vertex 35 -17.7 14
      vertex 27 -17.7 14
    endloop
  endfacet
  facet normal 0 0 1
    outer loop
      vertex 35 -17.7 14
      vertex 27 -19.7 14
      vertex 36 -19.7 14
    endloop
  endfacet
  facet normal 0 0 -1
    outer loop
      vertex -5 -18.7 9
      vertex -9.5 -17.7 9
      vertex -7 -11.2 9
    endloop
  endfacet
  facet normal 0 0 -1
    outer loop
      vertex -14.5961 -19.6933 9
      vertex -9.5 -17.7 9
      vertex -6 -19.7 9
    endloop
  endfacet
  facet normal -0 0 -1
    outer loop
      vertex -9.5 -17.7 9
      vertex -14.5961 -19.6933 9
      vertex -13.4453 -17.7 9
    endloop
  endfacet
  facet normal 0 0 -1
    outer loop
      vertex -6 -19.7 9
      vertex -19.7039 -19.6933 9
      vertex -14.5961 -19.6933 9
    endloop
  endfacet
  facet normal 0 0 -1
    outer loop
      vertex -19.7039 -19.6933 9
      vertex -37 -17.7 9
      vertex -20.8547 -17.7 9
    endloop
  endfacet
  facet normal 0 0 -1
    outer loop
      vertex -37 -17.7 9
      vertex -39.5 -11.2 9
      vertex -37 -11.2 9
    endloop
  endfacet
  facet normal 0 0 -1
    outer loop
      vertex -40.3579 -19.7 9
      vertex -19.7039 -19.6933 9
      vertex -6 -19.7 9
    endloop
  endfacet
  facet normal 0 0 -1
    outer loop
      vertex -40.3579 -19.7 9
      vertex -37 -17.7 9
      vertex -19.7039 -19.6933 9
    endloop
  endfacet
  facet normal 0 0 -1
    outer loop
      vertex -41.5 -18.5579 9
      vertex -37 -17.7 9
      vertex -40.3579 -19.7 9
    endloop
  endfacet
  facet normal -0 0 -1
    outer loop
      vertex -37 -17.7 9
      vertex -41.5 -18.5579 9
      vertex -39.5 -11.2 9
    endloop
  endfacet
  facet normal 0 0 -1
    outer loop
      vertex -41.5 -0.7 9
      vertex -39.5 -11.2 9
      vertex -41.5 -18.5579 9
    endloop
  endfacet
  facet normal 0 0 -1
    outer loop
      vertex -39.5 -11.2 9
      vertex -41.5 -0.7 9
      vertex -39.5 -0.7 9
    endloop
  endfacet
  facet normal 0 0 -1
    outer loop
      vertex 37 -18.7 9
      vertex 32.5 -17.7 9
      vertex 35 -11.2 9
    endloop
  endfacet
  facet normal 0 0 -1
    outer loop
      vertex 19.7039 -19.6933 9
      vertex 32.5 -17.7 9
      vertex 36 -19.7 9
    endloop
  endfacet
  facet normal -0 0 -1
    outer loop
      vertex 32.5 -17.7 9
      vertex 19.7039 -19.6933 9
      vertex 20.8547 -17.7 9
    endloop
  endfacet
  facet normal 0 0 -1
    outer loop
      vertex 36 -19.7 9
      vertex 14.5961 -19.6933 9
      vertex 19.7039 -19.6933 9
    endloop
  endfacet
  facet normal 0 0 -1
    outer loop
      vertex 14.5961 -19.6933 9
      vertex 11.5 -17.7 9
      vertex 13.4453 -17.7 9
    endloop
  endfacet
  facet normal 0 0 -1
    outer loop
      vertex 11.5 -17.7 9
      vertex 9 -11.2 9
      vertex 11.5 -11.2 9
    endloop
  endfacet
  facet normal 0 0 -1
    outer loop
      vertex 8.14214 -19.7 9
      vertex 14.5961 -19.6933 9
      vertex 36 -19.7 9
    endloop
  endfacet
  facet normal 0 0 -1
    outer loop
      vertex 8.14214 -19.7 9
      vertex 11.5 -17.7 9
      vertex 14.5961 -19.6933 9
    endloop
  endfacet
  facet normal 0 0 -1
    outer loop
      vertex 7 -18.5579 9
      vertex 11.5 -17.7 9
      vertex 8.14214 -19.7 9
    endloop
  endfacet
  facet normal -0 0 -1
    outer loop
      vertex 11.5 -17.7 9
      vertex 7 -18.5579 9
      vertex 9 -11.2 9
    endloop
  endfacet
  facet normal -0 0 -1
    outer loop
      vertex 9 -11.2 9
      vertex 7 -18.5579 9
      vertex 7 -11.2 9
    endloop
  endfacet
  facet normal 0 0 -1
    outer loop
      vertex 9 -11.2 9
      vertex 7 -11.2 9
      vertex 9 -0.7 9
    endloop
  endfacet
  facet normal -0 0 -1
    outer loop
      vertex 9 -0.7 9
      vertex 7 -11.2 9
      vertex 7 -0.7 9
    endloop
  endfacet
  facet normal 0 0 -1
    outer loop
      vertex 32.5 -17.7 9
      vertex 37 -18.7 9
      vertex 36 -19.7 9
    endloop
  endfacet
  facet normal 0 0 -1
    outer loop
      vertex 37 -18.7 9
      vertex 35 -11.2 9
      vertex 37 -0.7 9
    endloop
  endfacet
  facet normal -0 0 -1
    outer loop
      vertex 37 -0.7 9
      vertex 35 -11.2 9
      vertex 35 -0.7 9
    endloop
  endfacet
  facet normal -0 0 -1
    outer loop
      vertex 35 -11.2 9
      vertex 32.5 -17.7 9
      vertex 32.5 -11.2 9
    endloop
  endfacet
  facet normal 0 0 -1
    outer loop
      vertex -5 -18.7 9
      vertex 7 -18.5579 9
      vertex 7 -19.7 9
    endloop
  endfacet
  facet normal 0 0 -1
    outer loop
      vertex -5 -18.7 9
      vertex 7 -19.7 9
      vertex -5 -19.7 9
    endloop
  endfacet
  facet normal 0 0 -1
    outer loop
      vertex -5 -11.2 9
      vertex 7 -18.5579 9
      vertex -5 -18.7 9
    endloop
  endfacet
  facet normal 0 0 -1
    outer loop
      vertex 7 -18.5579 9
      vertex -5 -11.2 9
      vertex 7 -11.2 9
    endloop
  endfacet
  facet normal 0 0 -1
    outer loop
      vertex -7 -11.2 9
      vertex -5 -11.2 9
      vertex -5 -18.7 9
    endloop
  endfacet
  facet normal 0 0 -1
    outer loop
      vertex -9.5 -17.7 9
      vertex -5 -18.7 9
      vertex -6 -19.7 9
    endloop
  endfacet
  facet normal 0 0 -1
    outer loop
      vertex -5 -11.2 9
      vertex -7 -11.2 9
      vertex -5 -0.7 9
    endloop
  endfacet
  facet normal -0 0 -1
    outer loop
      vertex -5 -0.7 9
      vertex -7 -11.2 9
      vertex -7 -0.7 9
    endloop
  endfacet
  facet normal -0 0 -1
    outer loop
      vertex -7 -11.2 9
      vertex -9.5 -17.7 9
      vertex -9.5 -11.2 9
    endloop
  endfacet
  facet normal 0 0 1
    outer loop
      vertex 20.8586 -17.6933 9
      vertex 13.4453 -17.7 9
      vertex 20.8547 -17.7 9
    endloop
  endfacet
  facet normal 0 -0 1
    outer loop
      vertex 13.4453 -17.7 9
      vertex 20.8586 -17.6933 9
      vertex 13.4414 -17.6933 9
    endloop
  endfacet
  facet normal 0 0 1
    outer loop
      vertex -13.4414 -17.6933 9
      vertex -20.8547 -17.7 9
      vertex -13.4453 -17.7 9
    endloop
  endfacet
  facet normal 0 -0 1
    outer loop
      vertex -20.8547 -17.7 9
      vertex -13.4414 -17.6933 9
      vertex -20.8586 -17.6933 9
    endloop
  endfacet
  facet normal -1 0 0
    outer loop
      vertex 32.5 -17.7 9
      vertex 32.5 -11.2 10.9
      vertex 32.5 -11.2 9
    endloop
  endfacet
  facet normal -1 -0 0
    outer loop
      vertex 32.5 -11.2 10.9
      vertex 32.5 -17.7 9
      vertex 32.5 -17.7 10.9
    endloop
  endfacet
  facet normal 0 1 -0
    outer loop
      vertex 35 -11.2 9
      vertex 32.5 -11.2 10.9
      vertex 35 -11.2 10.9
    endloop
  endfacet
  facet normal 0 1 0
    outer loop
      vertex 32.5 -11.2 10.9
      vertex 35 -11.2 9
      vertex 32.5 -11.2 9
    endloop
  endfacet
  facet normal -1 0 0
    outer loop
      vertex 35 -11.2 10.9
      vertex 35 -0.7 14
      vertex 35 -0.7 10.9
    endloop
  endfacet
  facet normal -1 0 0
    outer loop
      vertex 35 -17.7 14
      vertex 35 -11.2 10.9
      vertex 35 -17.7 10.9
    endloop
  endfacet
  facet normal -1 0 0
    outer loop
      vertex 35 -11.2 10.9
      vertex 35 -17.7 14
      vertex 35 -0.7 14
    endloop
  endfacet
  facet normal -1 0 0
    outer loop
      vertex 35 -11.2 9
      vertex 35 -0.7 10.9
      vertex 35 -0.7 9
    endloop
  endfacet
  facet normal -1 -0 0
    outer loop
      vertex 35 -0.7 10.9
      vertex 35 -11.2 9
      vertex 35 -11.2 10.9
    endloop
  endfacet
  facet normal 0 1 0
    outer loop
      vertex 37 -0.7 14
      vertex 35 -0.7 10.9
      vertex 35 -0.7 14
    endloop
  endfacet
  facet normal 0 1 -0
    outer loop
      vertex 37 -0.7 9
      vertex 35 -0.7 10.9
      vertex 37 -0.7 14
    endloop
  endfacet
  facet normal 0 1 0
    outer loop
      vertex 35 -0.7 10.9
      vertex 37 -0.7 9
      vertex 35 -0.7 9
    endloop
  endfacet
  facet normal 0 1 -0
    outer loop
      vertex 11.5 -11.2 9
      vertex 9 -11.2 10.9
      vertex 11.5 -11.2 10.9
    endloop
  endfacet
  facet normal 0 1 0
    outer loop
      vertex 9 -11.2 10.9
      vertex 11.5 -11.2 9
      vertex 9 -11.2 9
    endloop
  endfacet
  facet normal 1 -0 0
    outer loop
      vertex 11.5 -17.7 10.9
      vertex 11.5 -11.2 9
      vertex 11.5 -11.2 10.9
    endloop
  endfacet
  facet normal 1 0 0
    outer loop
      vertex 11.5 -11.2 9
      vertex 11.5 -17.7 10.9
      vertex 11.5 -17.7 9
    endloop
  endfacet
  facet normal 0 1 -0
    outer loop
      vertex 9 -0.7 10.9
      vertex 7 -0.7 14
      vertex 9 -0.7 14
    endloop
  endfacet
  facet normal 0 1 0
    outer loop
      vertex 7 -0.7 9
      vertex 9 -0.7 10.9
      vertex 9 -0.7 9
    endloop
  endfacet
  facet normal 0 1 0
    outer loop
      vertex 9 -0.7 10.9
      vertex 7 -0.7 9
      vertex 7 -0.7 14
    endloop
  endfacet
  facet normal 1 0 0
    outer loop
      vertex 9 -0.7 14
      vertex 9 -11.2 10.9
      vertex 9 -0.7 10.9
    endloop
  endfacet
  facet normal 1 -0 0
    outer loop
      vertex 9 -17.7 14
      vertex 9 -11.2 10.9
      vertex 9 -0.7 14
    endloop
  endfacet
  facet normal 1 0 0
    outer loop
      vertex 9 -11.2 10.9
      vertex 9 -17.7 14
      vertex 9 -17.7 10.9
    endloop
  endfacet
  facet normal 1 -0 0
    outer loop
      vertex 9 -11.2 10.9
      vertex 9 -0.7 9
      vertex 9 -0.7 10.9
    endloop
  endfacet
  facet normal 1 0 0
    outer loop
      vertex 9 -0.7 9
      vertex 9 -11.2 10.9
      vertex 9 -11.2 9
    endloop
  endfacet
  facet normal -1 0 0
    outer loop
      vertex -41.5 -18.5579 9
      vertex -41.5 -0.7 14
      vertex -41.5 -0.7 9
    endloop
  endfacet
  facet normal -1 -0 0
    outer loop
      vertex -41.5 -0.7 14
      vertex -41.5 -18.5579 9
      vertex -41.5 -18.5579 14
    endloop
  endfacet
  facet normal 0 1 -0
    outer loop
      vertex -9.5 -17.7 12.325
      vertex -37 -17.7 14
      vertex -9.5 -17.7 14
    endloop
  endfacet
  facet normal 0 1 0
    outer loop
      vertex -37 -17.7 14
      vertex -9.5 -17.7 12.325
      vertex -37 -17.7 12.325
    endloop
  endfacet
  facet normal 0 1 0
    outer loop
      vertex -13.4453 -17.7 9
      vertex -9.5 -17.7 10.675
      vertex -9.5 -17.7 9
    endloop
  endfacet
  facet normal 0 1 0
    outer loop
      vertex -20.8547 -17.7 9
      vertex -9.5 -17.7 10.675
      vertex -13.4453 -17.7 9
    endloop
  endfacet
  facet normal 0 1 0
    outer loop
      vertex -9.5 -17.7 10.675
      vertex -20.8547 -17.7 9
      vertex -37 -17.7 10.675
    endloop
  endfacet
  facet normal 0 1 0
    outer loop
      vertex -37 -17.7 10.675
      vertex -20.8547 -17.7 9
      vertex -37 -17.7 9
    endloop
  endfacet
  facet normal 0 1 0
    outer loop
      vertex -9.5 -17.7 10.675
      vertex -9.5 -17.7 12.325
      vertex -7 -17.7 12.325
    endloop
  endfacet
  facet normal 0 1 0
    outer loop
      vertex -9.5 -17.7 12.325
      vertex -9.5 -17.7 10.675
      vertex -37 -17.7 12.325
    endloop
  endfacet
  facet normal 0 1 0
    outer loop
      vertex -9.5 -17.7 10.675
      vertex -7 -17.7 12.325
      vertex -7 -17.7 10.675
    endloop
  endfacet
  facet normal 0 1 0
    outer loop
      vertex -37 -17.7 10.675
      vertex -37 -17.7 12.325
      vertex -9.5 -17.7 10.675
    endloop
  endfacet
  facet normal 0 1 0
    outer loop
      vertex -37 -17.7 12.325
      vertex -37 -17.7 10.675
      vertex -39.5 -17.7 12.325
    endloop
  endfacet
  facet normal 0 1 0
    outer loop
      vertex -39.5 -17.7 12.325
      vertex -37 -17.7 10.675
      vertex -39.5 -17.7 10.675
    endloop
  endfacet
  facet normal 0 -1 0
    outer loop
      vertex -40.3579 -19.7 9
      vertex -6 -19.7 14
      vertex -40.3579 -19.7 14
    endloop
  endfacet
  facet normal 0 -1 -0
    outer loop
      vertex -6 -19.7 14
      vertex -40.3579 -19.7 9
      vertex -6 -19.7 9
    endloop
  endfacet
  facet normal 1 -0 0
    outer loop
      vertex -5 -11.2 14
      vertex -5 -0.7 9
      vertex -5 -0.7 14
    endloop
  endfacet
  facet normal 1 0 0
    outer loop
      vertex -5 -0.7 9
      vertex -5 -11.2 14
      vertex -5 -11.2 9
    endloop
  endfacet
  facet normal -1 0 0
    outer loop
      vertex -5 -19.7 9
      vertex -5 -18.7 14
      vertex -5 -18.7 9
    endloop
  endfacet
  facet normal -1 -0 0
    outer loop
      vertex -5 -18.7 14
      vertex -5 -19.7 9
      vertex -5 -19.7 14
    endloop
  endfacet
  facet normal -1 0 0
    outer loop
      vertex -9.5 -17.7 12.325
      vertex -9.5 -11.2 14
      vertex -9.5 -11.2 12.325
    endloop
  endfacet
  facet normal -1 -0 0
    outer loop
      vertex -9.5 -11.2 14
      vertex -9.5 -17.7 12.325
      vertex -9.5 -17.7 14
    endloop
  endfacet
  facet normal -1 0 0
    outer loop
      vertex -9.5 -17.7 9
      vertex -9.5 -11.2 10.675
      vertex -9.5 -11.2 9
    endloop
  endfacet
  facet normal -1 -0 0
    outer loop
      vertex -9.5 -11.2 10.675
      vertex -9.5 -17.7 9
      vertex -9.5 -17.7 10.675
    endloop
  endfacet
  facet normal 0 1 -0
    outer loop
      vertex -7 -11.2 12.325
      vertex -9.5 -11.2 14
      vertex -7 -11.2 14
    endloop
  endfacet
  facet normal 0 1 0
    outer loop
      vertex -9.5 -11.2 14
      vertex -7 -11.2 12.325
      vertex -9.5 -11.2 12.325
    endloop
  endfacet
  facet normal 0 1 -0
    outer loop
      vertex -7 -11.2 9
      vertex -9.5 -11.2 10.675
      vertex -7 -11.2 10.675
    endloop
  endfacet
  facet normal 0 1 0
    outer loop
      vertex -9.5 -11.2 10.675
      vertex -7 -11.2 9
      vertex -9.5 -11.2 9
    endloop
  endfacet
  facet normal -1 0 0
    outer loop
      vertex -7 -11.2 12.325
      vertex -7 -0.7 14
      vertex -7 -0.7 12.325
    endloop
  endfacet
  facet normal -1 -0 0
    outer loop
      vertex -7 -0.7 14
      vertex -7 -11.2 12.325
      vertex -7 -11.2 14
    endloop
  endfacet
  facet normal -1 0 0
    outer loop
      vertex -7 -11.2 9
      vertex -7 -0.7 10.675
      vertex -7 -0.7 9
    endloop
  endfacet
  facet normal -1 -0 0
    outer loop
      vertex -7 -0.7 10.675
      vertex -7 -11.2 9
      vertex -7 -11.2 10.675
    endloop
  endfacet
  facet normal -1 0 0
    outer loop
      vertex -7 -11.2 10.675
      vertex -7 -0.7 12.325
      vertex -7 -0.7 10.675
    endloop
  endfacet
  facet normal -1 0 0
    outer loop
      vertex -7 -11.2 10.675
      vertex -7 -11.2 12.325
      vertex -7 -0.7 12.325
    endloop
  endfacet
  facet normal -1 0 0
    outer loop
      vertex -7 -17.7 10.675
      vertex -7 -11.2 12.325
      vertex -7 -11.2 10.675
    endloop
  endfacet
  facet normal -1 -0 0
    outer loop
      vertex -7 -11.2 12.325
      vertex -7 -17.7 10.675
      vertex -7 -17.7 12.325
    endloop
  endfacet
  facet normal 0 1 0
    outer loop
      vertex -5 -0.7 14
      vertex -7 -0.7 12.325
      vertex -7 -0.7 14
    endloop
  endfacet
  facet normal 0 1 0
    outer loop
      vertex -5 -0.7 14
      vertex -7 -0.7 10.675
      vertex -7 -0.7 12.325
    endloop
  endfacet
  facet normal 0 1 -0
    outer loop
      vertex -5 -0.7 9
      vertex -7 -0.7 10.675
      vertex -5 -0.7 14
    endloop
  endfacet
  facet normal 0 1 0
    outer loop
      vertex -7 -0.7 10.675
      vertex -5 -0.7 9
      vertex -7 -0.7 9
    endloop
  endfacet
  facet normal 0 1 -0
    outer loop
      vertex -37 -11.2 12.325
      vertex -39.5 -11.2 14
      vertex -37 -11.2 14
    endloop
  endfacet
  facet normal 0 1 0
    outer loop
      vertex -39.5 -11.2 14
      vertex -37 -11.2 12.325
      vertex -39.5 -11.2 12.325
    endloop
  endfacet
  facet normal 0 1 -0
    outer loop
      vertex -37 -11.2 9
      vertex -39.5 -11.2 10.675
      vertex -37 -11.2 10.675
    endloop
  endfacet
  facet normal 0 1 0
    outer loop
      vertex -39.5 -11.2 10.675
      vertex -37 -11.2 9
      vertex -39.5 -11.2 9
    endloop
  endfacet
  facet normal 1 -0 0
    outer loop
      vertex -37 -17.7 14
      vertex -37 -11.2 12.325
      vertex -37 -11.2 14
    endloop
  endfacet
  facet normal 1 0 0
    outer loop
      vertex -37 -11.2 12.325
      vertex -37 -17.7 14
      vertex -37 -17.7 12.325
    endloop
  endfacet
  facet normal 1 -0 0
    outer loop
      vertex -37 -17.7 10.675
      vertex -37 -11.2 9
      vertex -37 -11.2 10.675
    endloop
  endfacet
  facet normal 1 0 0
    outer loop
      vertex -37 -11.2 9
      vertex -37 -17.7 10.675
      vertex -37 -17.7 9
    endloop
  endfacet
  facet normal 0 1 -0
    outer loop
      vertex -39.5 -0.7 12.325
      vertex -41.5 -0.7 14
      vertex -39.5 -0.7 14
    endloop
  endfacet
  facet normal 0 1 -0
    outer loop
      vertex -39.5 -0.7 10.675
      vertex -41.5 -0.7 14
      vertex -39.5 -0.7 12.325
    endloop
  endfacet
  facet normal 0 1 0
    outer loop
      vertex -41.5 -0.7 9
      vertex -39.5 -0.7 10.675
      vertex -39.5 -0.7 9
    endloop
  endfacet
  facet normal 0 1 0
    outer loop
      vertex -39.5 -0.7 10.675
      vertex -41.5 -0.7 9
      vertex -41.5 -0.7 14
    endloop
  endfacet
  facet normal 1 -0 0
    outer loop
      vertex -39.5 -11.2 14
      vertex -39.5 -0.7 12.325
      vertex -39.5 -0.7 14
    endloop
  endfacet
  facet normal 1 0 0
    outer loop
      vertex -39.5 -0.7 12.325
      vertex -39.5 -11.2 14
      vertex -39.5 -11.2 12.325
    endloop
  endfacet
  facet normal 1 -0 0
    outer loop
      vertex -39.5 -11.2 10.675
      vertex -39.5 -0.7 9
      vertex -39.5 -0.7 10.675
    endloop
  endfacet
  facet normal 1 0 0
    outer loop
      vertex -39.5 -0.7 9
      vertex -39.5 -11.2 10.675
      vertex -39.5 -11.2 9
    endloop
  endfacet
  facet normal 1 -0 0
    outer loop
      vertex -39.5 -11.2 12.325
      vertex -39.5 -0.7 10.675
      vertex -39.5 -0.7 12.325
    endloop
  endfacet
  facet normal 1 0 0
    outer loop
      vertex -39.5 -11.2 12.325
      vertex -39.5 -11.2 10.675
      vertex -39.5 -0.7 10.675
    endloop
  endfacet
  facet normal 1 -0 0
    outer loop
      vertex -39.5 -17.7 12.325
      vertex -39.5 -11.2 10.675
      vertex -39.5 -11.2 12.325
    endloop
  endfacet
  facet normal 1 0 0
    outer loop
      vertex -39.5 -11.2 10.675
      vertex -39.5 -17.7 12.325
      vertex -39.5 -17.7 10.675
    endloop
  endfacet
  facet normal 0 0 -1
    outer loop
      vertex -39.5 -17.7 12.325
      vertex -37 -11.2 12.325
      vertex -37 -17.7 12.325
    endloop
  endfacet
  facet normal -0 0 -1
    outer loop
      vertex -37 -11.2 12.325
      vertex -39.5 -17.7 12.325
      vertex -39.5 -11.2 12.325
    endloop
  endfacet
  facet normal 0 0 -1
    outer loop
      vertex -9.5 -17.7 12.325
      vertex -7 -11.2 12.325
      vertex -7 -17.7 12.325
    endloop
  endfacet
  facet normal -0 0 -1
    outer loop
      vertex -7 -11.2 12.325
      vertex -9.5 -17.7 12.325
      vertex -9.5 -11.2 12.325
    endloop
  endfacet
  facet normal -0 0 1
    outer loop
      vertex -39.5 -11.2 10.675
      vertex -37 -17.7 10.675
      vertex -37 -11.2 10.675
    endloop
  endfacet
  facet normal 0 0 1
    outer loop
      vertex -37 -17.7 10.675
      vertex -39.5 -11.2 10.675
      vertex -39.5 -17.7 10.675
    endloop
  endfacet
  facet normal -0 0 1
    outer loop
      vertex -9.5 -11.2 10.675
      vertex -7 -17.7 10.675
      vertex -7 -11.2 10.675
    endloop
  endfacet
  facet normal 0 0 1
    outer loop
      vertex -7 -17.7 10.675
      vertex -9.5 -11.2 10.675
      vertex -9.5 -17.7 10.675
    endloop
  endfacet
  facet normal 0.707107 -0.707107 0
    outer loop
      vertex -6 -19.7 14
      vertex -5 -18.7 9
      vertex -5 -18.7 14
    endloop
  endfacet
  facet normal 0.707107 -0.707107 0
    outer loop
      vertex -5 -18.7 9
      vertex -6 -19.7 14
      vertex -6 -19.7 9
    endloop
  endfacet
  facet normal -0.707107 -0.707107 0
    outer loop
      vertex -40.3579 -19.7 9
      vertex -41.5 -18.5579 14
      vertex -41.5 -18.5579 9
    endloop
  endfacet
  facet normal -0.707107 -0.707107 0
    outer loop
      vertex -41.5 -18.5579 14
      vertex -40.3579 -19.7 9
      vertex -40.3579 -19.7 14
    endloop
  endfacet
  facet normal -0 0 1
    outer loop
      vertex 9 -11.2 10.9
      vertex 11.5 -17.7 10.9
      vertex 11.5 -11.2 10.9
    endloop
  endfacet
  facet normal 0 0 1
    outer loop
      vertex 11.5 -17.7 10.9
      vertex 9 -11.2 10.9
      vertex 9 -17.7 10.9
    endloop
  endfacet
  facet normal -0 0 1
    outer loop
      vertex 32.5 -11.2 10.9
      vertex 35 -17.7 10.9
      vertex 35 -11.2 10.9
    endloop
  endfacet
  facet normal 0 0 1
    outer loop
      vertex 35 -17.7 10.9
      vertex 32.5 -11.2 10.9
      vertex 32.5 -17.7 10.9
    endloop
  endfacet
  facet normal 1 -0 0
    outer loop
      vertex 17 -19.7 14
      vertex 17 -17.7 11.5
      vertex 17 -17.7 14
    endloop
  endfacet
  facet normal 1 0 0
    outer loop
      vertex 17 -17.7 11.5
      vertex 17 -19.7 14
      vertex 17 -19.7 11.5
    endloop
  endfacet
  facet normal -1 0 0
    outer loop
      vertex 27 -19.7 11.5
      vertex 27 -17.7 14
      vertex 27 -17.7 11.5
    endloop
  endfacet
  facet normal -1 -0 0
    outer loop
      vertex 27 -17.7 14
      vertex 27 -19.7 11.5
      vertex 27 -19.7 14
    endloop
  endfacet
  facet normal -0 0 1
    outer loop
      vertex 17 -17.7 11.5
      vertex 27 -19.7 11.5
      vertex 27 -17.7 11.5
    endloop
  endfacet
  facet normal 0 0 1
    outer loop
      vertex 27 -19.7 11.5
      vertex 17 -17.7 11.5
      vertex 17 -19.7 11.5
    endloop
  endfacet
  facet normal 0.707107 -0.707107 0
    outer loop
      vertex 36 -19.7 14
      vertex 37 -18.7 9
      vertex 37 -18.7 14
    endloop
  endfacet
  facet normal 0.707107 -0.707107 0
    outer loop
      vertex 37 -18.7 9
      vertex 36 -19.7 14
      vertex 36 -19.7 9
    endloop
  endfacet
  facet normal -0.707094 -0.707119 0
    outer loop
      vertex 8.14214 -19.7 9
      vertex 7 -18.5579 14
      vertex 7 -18.5579 9
    endloop
  endfacet
  facet normal -0.707094 -0.707119 0
    outer loop
      vertex 7 -18.5579 14
      vertex 8.14214 -19.7 9
      vertex 8.14214 -19.7 14
    endloop
  endfacet
  facet normal 0 1 -0
    outer loop
      vertex 7 -11.2 9
      vertex -5 -11.2 14
      vertex 7 -11.2 14
    endloop
  endfacet
  facet normal 0 1 0
    outer loop
      vertex -5 -11.2 14
      vertex 7 -11.2 9
      vertex -5 -11.2 9
    endloop
  endfacet
  facet normal 0 -1 0
    outer loop
      vertex -5 -19.7 9
      vertex 7 -19.7 14
      vertex -5 -19.7 14
    endloop
  endfacet
  facet normal 0 -1 -0
    outer loop
      vertex 7 -19.7 14
      vertex -5 -19.7 9
      vertex 7 -19.7 9
    endloop
  endfacet
  facet normal -0.864246 -0.503069 0
    outer loop
      vertex -20.8586 -17.6933 5
      vertex -20.8547 -17.7 9
      vertex -20.8586 -17.6933 9
    endloop
  endfacet
  facet normal -0.866026 -0.5 6.87516e-06
    outer loop
      vertex -19.7039 -19.6933 5
      vertex -20.8547 -17.7 9
      vertex -20.8586 -17.6933 5
    endloop
  endfacet
  facet normal -0.866031 -0.499989 0
    outer loop
      vertex -20.8547 -17.7 9
      vertex -19.7039 -19.6933 5
      vertex -19.7039 -19.6933 9
    endloop
  endfacet
  facet normal 0.864246 -0.503069 0
    outer loop
      vertex -13.4453 -17.7 9
      vertex -13.4414 -17.6933 5
      vertex -13.4414 -17.6933 9
    endloop
  endfacet
  facet normal 0.866031 -0.499989 6.89832e-06
    outer loop
      vertex -14.5961 -19.6933 9
      vertex -13.4414 -17.6933 5
      vertex -13.4453 -17.7 9
    endloop
  endfacet
  facet normal 0.866026 -0.5 0
    outer loop
      vertex -13.4414 -17.6933 5
      vertex -14.5961 -19.6933 9
      vertex -14.5961 -19.6933 5
    endloop
  endfacet
  facet normal 0 0 -1
    outer loop
      vertex -19.7039 -19.6933 5
      vertex -13.4414 -17.6933 5
      vertex -14.5961 -19.6933 5
    endloop
  endfacet
  facet normal -0 0 -1
    outer loop
      vertex -13.4414 -17.6933 5
      vertex -19.7039 -19.6933 5
      vertex -20.8586 -17.6933 5
    endloop
  endfacet
  facet normal 0 1 -0
    outer loop
      vertex -13.4414 -17.6933 5
      vertex -20.8586 -17.6933 9
      vertex -13.4414 -17.6933 9
    endloop
  endfacet
  facet normal 0 1 0
    outer loop
      vertex -20.8586 -17.6933 9
      vertex -13.4414 -17.6933 5
      vertex -20.8586 -17.6933 5
    endloop
  endfacet
  facet normal 0 -1 0
    outer loop
      vertex -19.7039 -19.6933 5
      vertex -14.5961 -19.6933 9
      vertex -19.7039 -19.6933 9
    endloop
  endfacet
  facet normal 0 -1 -0
    outer loop
      vertex -14.5961 -19.6933 9
      vertex -19.7039 -19.6933 5
      vertex -14.5961 -19.6933 5
    endloop
  endfacet
  facet normal -0.864246 -0.503069 0
    outer loop
      vertex 13.4414 -17.6933 5
      vertex 13.4453 -17.7 9
      vertex 13.4414 -17.6933 9
    endloop
  endfacet
  facet normal -0.866026 -0.5 6.87516e-06
    outer loop
      vertex 14.5961 -19.6933 5
      vertex 13.4453 -17.7 9
      vertex 13.4414 -17.6933 5
    endloop
  endfacet
  facet normal -0.866031 -0.499989 0
    outer loop
      vertex 13.4453 -17.7 9
      vertex 14.5961 -19.6933 5
      vertex 14.5961 -19.6933 9
    endloop
  endfacet
  facet normal 0.864246 -0.503069 0
    outer loop
      vertex 20.8547 -17.7 9
      vertex 20.8586 -17.6933 5
      vertex 20.8586 -17.6933 9
    endloop
  endfacet
  facet normal 0.866031 -0.499989 6.89832e-06
    outer loop
      vertex 19.7039 -19.6933 9
      vertex 20.8586 -17.6933 5
      vertex 20.8547 -17.7 9
    endloop
  endfacet
  facet normal 0.866026 -0.5 0
    outer loop
      vertex 20.8586 -17.6933 5
      vertex 19.7039 -19.6933 9
      vertex 19.7039 -19.6933 5
    endloop
  endfacet
  facet normal 0 0 -1
    outer loop
      vertex 14.5961 -19.6933 5
      vertex 20.8586 -17.6933 5
      vertex 19.7039 -19.6933 5
    endloop
  endfacet
  facet normal -0 0 -1
    outer loop
      vertex 20.8586 -17.6933 5
      vertex 14.5961 -19.6933 5
      vertex 13.4414 -17.6933 5
    endloop
  endfacet
  facet normal 0 1 -0
    outer loop
      vertex 20.8586 -17.6933 5
      vertex 13.4414 -17.6933 9
      vertex 20.8586 -17.6933 9
    endloop
  endfacet
  facet normal 0 1 0
    outer loop
      vertex 13.4414 -17.6933 9
      vertex 20.8586 -17.6933 5
      vertex 13.4414 -17.6933 5
    endloop
  endfacet
  facet normal 0 -1 0
    outer loop
      vertex 14.5961 -19.6933 5
      vertex 19.7039 -19.6933 9
      vertex 14.5961 -19.6933 9
    endloop
  endfacet
  facet normal 0 -1 -0
    outer loop
      vertex 19.7039 -19.6933 9
      vertex 14.5961 -19.6933 5
      vertex 19.7039 -19.6933 5
    endloop
  endfacet
endsolid OpenSCAD_Model
