solid OpenSCAD_Model
  facet normal -1 0 0
    outer loop
      vertex 7 -0.7 9
      vertex 7 9.8 14
      vertex 7 9.8 9
    endloop
  endfacet
  facet normal -1 -0 0
    outer loop
      vertex 7 9.8 14
      vertex 7 -0.7 9
      vertex 7 -0.7 14
    endloop
  endfacet
  facet normal 1 -0 0
    outer loop
      vertex 7 17.1579 14
      vertex 7 18.3 9
      vertex 7 18.3 14
    endloop
  endfacet
  facet normal 1 0 0
    outer loop
      vertex 7 18.3 9
      vertex 7 17.1579 14
      vertex 7 17.1579 9
    endloop
  endfacet
  facet normal 0 -1 0
    outer loop
      vertex 13.4453 16.3 9
      vertex 11.5 16.3 10.9
      vertex 11.5 16.3 9
    endloop
  endfacet
  facet normal 0 -1 0
    outer loop
      vertex 20.8547 16.3 9
      vertex 11.5 16.3 10.9
      vertex 13.4453 16.3 9
    endloop
  endfacet
  facet normal 0 -1 0
    outer loop
      vertex 11.5 16.3 10.9
      vertex 20.8547 16.3 9
      vertex 32.5 16.3 10.9
    endloop
  endfacet
  facet normal 0 -1 -0
    outer loop
      vertex 32.5 16.3 10.9
      vertex 20.8547 16.3 9
      vertex 32.5 16.3 9
    endloop
  endfacet
  facet normal 0 -1 0
    outer loop
      vertex 11.5 16.3 12.1
      vertex 32.5 16.3 14
      vertex 11.5 16.3 14
    endloop
  endfacet
  facet normal 0 -1 -0
    outer loop
      vertex 32.5 16.3 14
      vertex 11.5 16.3 12.1
      vertex 32.5 16.3 12.1
    endloop
  endfacet
  facet normal 0 -1 0
    outer loop
      vertex 11.5 16.3 10.9
      vertex 11.5 16.3 12.1
      vertex 9 16.3 12.1
    endloop
  endfacet
  facet normal 0 -1 0
    outer loop
      vertex 11.5 16.3 12.1
      vertex 11.5 16.3 10.9
      vertex 32.5 16.3 12.1
    endloop
  endfacet
  facet normal 0 -1 0
    outer loop
      vertex 11.5 16.3 10.9
      vertex 9 16.3 12.1
      vertex 9 16.3 10.9
    endloop
  endfacet
  facet normal 0 -1 0
    outer loop
      vertex 32.5 16.3 10.9
      vertex 32.5 16.3 12.1
      vertex 11.5 16.3 10.9
    endloop
  endfacet
  facet normal 0 -1 0
    outer loop
      vertex 32.5 16.3 12.1
      vertex 32.5 16.3 10.9
      vertex 35 16.3 12.1
    endloop
  endfacet
  facet normal 0 -1 -0
    outer loop
      vertex 35 16.3 12.1
      vertex 32.5 16.3 10.9
      vertex 35 16.3 10.9
    endloop
  endfacet
  facet normal 0 1 -0
    outer loop
      vertex 36 18.3 9
      vertex 8.14214 18.3 14
      vertex 36 18.3 14
    endloop
  endfacet
  facet normal 0 1 0
    outer loop
      vertex 8.14214 18.3 14
      vertex 36 18.3 9
      vertex 8.14214 18.3 9
    endloop
  endfacet
  facet normal 1 -0 0
    outer loop
      vertex 37 -0.7 14
      vertex 37 17.3 9
      vertex 37 17.3 14
    endloop
  endfacet
  facet normal 1 0 0
    outer loop
      vertex 37 17.3 9
      vertex 37 -0.7 14
      vertex 37 -0.7 9
    endloop
  endfacet
  facet normal -0 0 1
    outer loop
      vertex 13.4453 16.3 9
      vertex 20.8586 16.2933 9
      vertex 20.8547 16.3 9
    endloop
  endfacet
  facet normal 0 0 1
    outer loop
      vertex 20.8586 16.2933 9
      vertex 13.4453 16.3 9
      vertex 13.4414 16.2933 9
    endloop
  endfacet
  facet normal 0 0 -1
    outer loop
      vertex -37 9.8 9
      vertex -39.5 9.8 9
      vertex -37 16.3 9
    endloop
  endfacet
  facet normal 0 0 -1
    outer loop
      vertex 11.5 9.8 9
      vertex 9 9.8 9
      vertex 11.5 16.3 9
    endloop
  endfacet
  facet normal 0 0 -1
    outer loop
      vertex 35 9.8 9
      vertex 37 17.3 9
      vertex 37 -0.7 9
    endloop
  endfacet
  facet normal 0 0 -1
    outer loop
      vertex 35 9.8 9
      vertex 37 -0.7 9
      vertex 35 -0.7 9
    endloop
  endfacet
  facet normal 0 0 -1
    outer loop
      vertex 32.5 16.3 9
      vertex 37 17.3 9
      vertex 35 9.8 9
    endloop
  endfacet
  facet normal 0 0 -1
    outer loop
      vertex 32.5 16.3 9
      vertex 35 9.8 9
      vertex 32.5 9.8 9
    endloop
  endfacet
  facet normal -0 0 -1
    outer loop
      vertex 37 17.3 9
      vertex 32.5 16.3 9
      vertex 36 18.3 9
    endloop
  endfacet
  facet normal 0 0 -1
    outer loop
      vertex 19.7039 18.2933 9
      vertex 32.5 16.3 9
      vertex 20.8547 16.3 9
    endloop
  endfacet
  facet normal 0 0 -1
    outer loop
      vertex 32.5 16.3 9
      vertex 19.7039 18.2933 9
      vertex 36 18.3 9
    endloop
  endfacet
  facet normal 0 0 -1
    outer loop
      vertex 14.5961 18.2933 9
      vertex 36 18.3 9
      vertex 19.7039 18.2933 9
    endloop
  endfacet
  facet normal 0 0 -1
    outer loop
      vertex 11.5 16.3 9
      vertex 14.5961 18.2933 9
      vertex 13.4453 16.3 9
    endloop
  endfacet
  facet normal 0 0 -1
    outer loop
      vertex 14.5961 18.2933 9
      vertex 8.14214 18.3 9
      vertex 36 18.3 9
    endloop
  endfacet
  facet normal 0 0 -1
    outer loop
      vertex 11.5 16.3 9
      vertex 8.14214 18.3 9
      vertex 14.5961 18.2933 9
    endloop
  endfacet
  facet normal 0 0 -1
    outer loop
      vertex 7 17.1579 9
      vertex 11.5 16.3 9
      vertex 9 9.8 9
    endloop
  endfacet
  facet normal 0 0 -1
    outer loop
      vertex 7 9.8 9
      vertex 9 9.8 9
      vertex 9 -0.7 9
    endloop
  endfacet
  facet normal 0 0 -1
    outer loop
      vertex 7 9.8 9
      vertex 9 -0.7 9
      vertex 7 -0.7 9
    endloop
  endfacet
  facet normal 0 0 -1
    outer loop
      vertex 7 17.1579 9
      vertex 9 9.8 9
      vertex 7 9.8 9
    endloop
  endfacet
  facet normal 0 0 -1
    outer loop
      vertex 11.5 16.3 9
      vertex 7 17.1579 9
      vertex 8.14214 18.3 9
    endloop
  endfacet
  facet normal 0 0 -1
    outer loop
      vertex -5 9.8 9
      vertex 7 17.1579 9
      vertex 7 9.8 9
    endloop
  endfacet
  facet normal -0 0 -1
    outer loop
      vertex 7 17.1579 9
      vertex -5 9.8 9
      vertex -5 17.3 9
    endloop
  endfacet
  facet normal 0 0 -1
    outer loop
      vertex 7 17.1579 9
      vertex -5 17.3 9
      vertex 7 18.3 9
    endloop
  endfacet
  facet normal -0 0 -1
    outer loop
      vertex 7 18.3 9
      vertex -5 17.3 9
      vertex -5 18.3 9
    endloop
  endfacet
  facet normal 0 0 -1
    outer loop
      vertex -7 9.8 9
      vertex -5 9.8 9
      vertex -5 -0.7 9
    endloop
  endfacet
  facet normal 0 0 -1
    outer loop
      vertex -5 9.8 9
      vertex -7 9.8 9
      vertex -5 17.3 9
    endloop
  endfacet
  facet normal 0 0 -1
    outer loop
      vertex -7 9.8 9
      vertex -5 -0.7 9
      vertex -7 -0.7 9
    endloop
  endfacet
  facet normal 0 0 -1
    outer loop
      vertex -9.5 16.3 9
      vertex -5 17.3 9
      vertex -7 9.8 9
    endloop
  endfacet
  facet normal 0 0 -1
    outer loop
      vertex -9.5 16.3 9
      vertex -7 9.8 9
      vertex -9.5 9.8 9
    endloop
  endfacet
  facet normal -0 0 -1
    outer loop
      vertex -5 17.3 9
      vertex -9.5 16.3 9
      vertex -6 18.3 9
    endloop
  endfacet
  facet normal 0 0 -1
    outer loop
      vertex -14.5961 18.2933 9
      vertex -9.5 16.3 9
      vertex -13.4453 16.3 9
    endloop
  endfacet
  facet normal 0 0 -1
    outer loop
      vertex -9.5 16.3 9
      vertex -14.5961 18.2933 9
      vertex -6 18.3 9
    endloop
  endfacet
  facet normal 0 0 -1
    outer loop
      vertex -19.7039 18.2933 9
      vertex -6 18.3 9
      vertex -14.5961 18.2933 9
    endloop
  endfacet
  facet normal 0 0 -1
    outer loop
      vertex -37 16.3 9
      vertex -19.7039 18.2933 9
      vertex -20.8547 16.3 9
    endloop
  endfacet
  facet normal 0 0 -1
    outer loop
      vertex -19.7039 18.2933 9
      vertex -40.3579 18.3 9
      vertex -6 18.3 9
    endloop
  endfacet
  facet normal 0 0 -1
    outer loop
      vertex -37 16.3 9
      vertex -40.3579 18.3 9
      vertex -19.7039 18.2933 9
    endloop
  endfacet
  facet normal 0 0 -1
    outer loop
      vertex -41.5 17.1579 9
      vertex -37 16.3 9
      vertex -39.5 9.8 9
    endloop
  endfacet
  facet normal 0 0 -1
    outer loop
      vertex -41.5 -0.7 9
      vertex -39.5 9.8 9
      vertex -39.5 -0.7 9
    endloop
  endfacet
  facet normal -0 0 -1
    outer loop
      vertex -39.5 9.8 9
      vertex -41.5 -0.7 9
      vertex -41.5 17.1579 9
    endloop
  endfacet
  facet normal 0 0 -1
    outer loop
      vertex -37 16.3 9
      vertex -41.5 17.1579 9
      vertex -40.3579 18.3 9
    endloop
  endfacet
  facet normal -0 0 1
    outer loop
      vertex -20.8547 16.3 9
      vertex -13.4414 16.2933 9
      vertex -13.4453 16.3 9
    endloop
  endfacet
  facet normal 0 0 1
    outer loop
      vertex -13.4414 16.2933 9
      vertex -20.8547 16.3 9
      vertex -20.8586 16.2933 9
    endloop
  endfacet
  facet normal 0 0 1
    outer loop
      vertex -5 17.3 14
      vertex -9.5 16.3 14
      vertex -7 9.8 14
    endloop
  endfacet
  facet normal -0 0 1
    outer loop
      vertex -40.3579 18.3 14
      vertex -9.5 16.3 14
      vertex -6 18.3 14
    endloop
  endfacet
  facet normal 0 0 1
    outer loop
      vertex -37 16.3 14
      vertex -39.5 9.8 14
      vertex -37 9.8 14
    endloop
  endfacet
  facet normal 0 0 1
    outer loop
      vertex -9.5 16.3 14
      vertex -40.3579 18.3 14
      vertex -37 16.3 14
    endloop
  endfacet
  facet normal -0 0 1
    outer loop
      vertex -41.5 17.1579 14
      vertex -37 16.3 14
      vertex -40.3579 18.3 14
    endloop
  endfacet
  facet normal 0 0 1
    outer loop
      vertex -37 16.3 14
      vertex -41.5 17.1579 14
      vertex -39.5 9.8 14
    endloop
  endfacet
  facet normal 0 0 1
    outer loop
      vertex -41.5 -0.7 14
      vertex -39.5 9.8 14
      vertex -41.5 17.1579 14
    endloop
  endfacet
  facet normal 0 0 1
    outer loop
      vertex -39.5 9.8 14
      vertex -41.5 -0.7 14
      vertex -39.5 -0.7 14
    endloop
  endfacet
  facet normal 0 0 1
    outer loop
      vertex 37 17.3 14
      vertex 32.5 16.3 14
      vertex 35 9.8 14
    endloop
  endfacet
  facet normal -0 0 1
    outer loop
      vertex 8.14214 18.3 14
      vertex 32.5 16.3 14
      vertex 36 18.3 14
    endloop
  endfacet
  facet normal 0 0 1
    outer loop
      vertex 11.5 16.3 14
      vertex 9 9.8 14
      vertex 11.5 9.8 14
    endloop
  endfacet
  facet normal 0 0 1
    outer loop
      vertex 32.5 16.3 14
      vertex 8.14214 18.3 14
      vertex 11.5 16.3 14
    endloop
  endfacet
  facet normal -0 0 1
    outer loop
      vertex 7 17.1579 14
      vertex 11.5 16.3 14
      vertex 8.14214 18.3 14
    endloop
  endfacet
  facet normal 0 0 1
    outer loop
      vertex 11.5 16.3 14
      vertex 7 17.1579 14
      vertex 9 9.8 14
    endloop
  endfacet
  facet normal 0 0 1
    outer loop
      vertex 9 9.8 14
      vertex 7 17.1579 14
      vertex 7 9.8 14
    endloop
  endfacet
  facet normal 0 0 1
    outer loop
      vertex 9 9.8 14
      vertex 7 9.8 14
      vertex 9 -0.7 14
    endloop
  endfacet
  facet normal 0 0 1
    outer loop
      vertex 9 -0.7 14
      vertex 7 9.8 14
      vertex 7 -0.7 14
    endloop
  endfacet
  facet normal 0 0 1
    outer loop
      vertex 32.5 16.3 14
      vertex 37 17.3 14
      vertex 36 18.3 14
    endloop
  endfacet
  facet normal 0 0 1
    outer loop
      vertex 37 17.3 14
      vertex 35 9.8 14
      vertex 37 -0.7 14
    endloop
  endfacet
  facet normal 0 0 1
    outer loop
      vertex 37 -0.7 14
      vertex 35 9.8 14
      vertex 35 -0.7 14
    endloop
  endfacet
  facet normal 0 0 1
    outer loop
      vertex 35 9.8 14
      vertex 32.5 16.3 14
      vertex 32.5 9.8 14
    endloop
  endfacet
  facet normal -0 0 1
    outer loop
      vertex -5 17.3 14
      vertex 7 17.1579 14
      vertex 7 18.3 14
    endloop
  endfacet
  facet normal 0 0 1
    outer loop
      vertex -5 17.3 14
      vertex 7 18.3 14
      vertex -5 18.3 14
    endloop
  endfacet
  facet normal 0 0 1
    outer loop
      vertex -5 9.8 14
      vertex 7 17.1579 14
      vertex -5 17.3 14
    endloop
  endfacet
  facet normal 0 0 1
    outer loop
      vertex 7 17.1579 14
      vertex -5 9.8 14
      vertex 7 9.8 14
    endloop
  endfacet
  facet normal 0 0 1
    outer loop
      vertex -7 9.8 14
      vertex -5 9.8 14
      vertex -5 17.3 14
    endloop
  endfacet
  facet normal 0 0 1
    outer loop
      vertex -9.5 16.3 14
      vertex -5 17.3 14
      vertex -6 18.3 14
    endloop
  endfacet
  facet normal 0 0 1
    outer loop
      vertex -5 9.8 14
      vertex -7 9.8 14
      vertex -5 -0.7 14
    endloop
  endfacet
  facet normal 0 0 1
    outer loop
      vertex -5 -0.7 14
      vertex -7 9.8 14
      vertex -7 -0.7 14
    endloop
  endfacet
  facet normal 0 0 1
    outer loop
      vertex -7 9.8 14
      vertex -9.5 16.3 14
      vertex -9.5 9.8 14
    endloop
  endfacet
  facet normal -1 0 0
    outer loop
      vertex 32.5 9.8 9
      vertex 32.5 16.3 10.9
      vertex 32.5 16.3 9
    endloop
  endfacet
  facet normal -1 -0 0
    outer loop
      vertex 32.5 16.3 10.9
      vertex 32.5 9.8 9
      vertex 32.5 9.8 10.9
    endloop
  endfacet
  facet normal -1 0 0
    outer loop
      vertex 32.5 9.8 12.1
      vertex 32.5 16.3 14
      vertex 32.5 16.3 12.1
    endloop
  endfacet
  facet normal -1 -0 0
    outer loop
      vertex 32.5 16.3 14
      vertex 32.5 9.8 12.1
      vertex 32.5 9.8 14
    endloop
  endfacet
  facet normal 0 -1 0
    outer loop
      vertex 32.5 9.8 9
      vertex 35 9.8 10.9
      vertex 32.5 9.8 10.9
    endloop
  endfacet
  facet normal 0 -1 -0
    outer loop
      vertex 35 9.8 10.9
      vertex 32.5 9.8 9
      vertex 35 9.8 9
    endloop
  endfacet
  facet normal 0 -1 0
    outer loop
      vertex 32.5 9.8 12.1
      vertex 35 9.8 14
      vertex 32.5 9.8 14
    endloop
  endfacet
  facet normal 0 -1 -0
    outer loop
      vertex 35 9.8 14
      vertex 32.5 9.8 12.1
      vertex 35 9.8 12.1
    endloop
  endfacet
  facet normal -1 0 0
    outer loop
      vertex 35 -0.7 9
      vertex 35 9.8 10.9
      vertex 35 9.8 9
    endloop
  endfacet
  facet normal -1 -0 0
    outer loop
      vertex 35 9.8 10.9
      vertex 35 -0.7 9
      vertex 35 -0.7 10.9
    endloop
  endfacet
  facet normal -1 0 0
    outer loop
      vertex 35 -0.7 12.1
      vertex 35 9.8 14
      vertex 35 9.8 12.1
    endloop
  endfacet
  facet normal -1 -0 0
    outer loop
      vertex 35 9.8 14
      vertex 35 -0.7 12.1
      vertex 35 -0.7 14
    endloop
  endfacet
  facet normal -1 0 0
    outer loop
      vertex 35 9.8 10.9
      vertex 35 16.3 12.1
      vertex 35 16.3 10.9
    endloop
  endfacet
  facet normal -1 0 0
    outer loop
      vertex 35 9.8 10.9
      vertex 35 9.8 12.1
      vertex 35 16.3 12.1
    endloop
  endfacet
  facet normal -1 0 0
    outer loop
      vertex 35 -0.7 10.9
      vertex 35 9.8 12.1
      vertex 35 9.8 10.9
    endloop
  endfacet
  facet normal -1 -0 0
    outer loop
      vertex 35 9.8 12.1
      vertex 35 -0.7 10.9
      vertex 35 -0.7 12.1
    endloop
  endfacet
  facet normal 0 -1 0
    outer loop
      vertex 35 -0.7 12.1
      vertex 37 -0.7 14
      vertex 35 -0.7 14
    endloop
  endfacet
  facet normal 0 -1 0
    outer loop
      vertex 35 -0.7 10.9
      vertex 37 -0.7 14
      vertex 35 -0.7 12.1
    endloop
  endfacet
  facet normal 0 -1 0
    outer loop
      vertex 37 -0.7 9
      vertex 35 -0.7 10.9
      vertex 35 -0.7 9
    endloop
  endfacet
  facet normal 0 -1 0
    outer loop
      vertex 35 -0.7 10.9
      vertex 37 -0.7 9
      vertex 37 -0.7 14
    endloop
  endfacet
  facet normal 0 -1 0
    outer loop
      vertex 9 9.8 9
      vertex 11.5 9.8 10.9
      vertex 9 9.8 10.9
    endloop
  endfacet
  facet normal 0 -1 -0
    outer loop
      vertex 11.5 9.8 10.9
      vertex 9 9.8 9
      vertex 11.5 9.8 9
    endloop
  endfacet
  facet normal 0 -1 0
    outer loop
      vertex 9 9.8 12.1
      vertex 11.5 9.8 14
      vertex 9 9.8 14
    endloop
  endfacet
  facet normal 0 -1 -0
    outer loop
      vertex 11.5 9.8 14
      vertex 9 9.8 12.1
      vertex 11.5 9.8 12.1
    endloop
  endfacet
  facet normal 1 -0 0
    outer loop
      vertex 11.5 9.8 10.9
      vertex 11.5 16.3 9
      vertex 11.5 16.3 10.9
    endloop
  endfacet
  facet normal 1 0 0
    outer loop
      vertex 11.5 16.3 9
      vertex 11.5 9.8 10.9
      vertex 11.5 9.8 9
    endloop
  endfacet
  facet normal 1 -0 0
    outer loop
      vertex 11.5 9.8 14
      vertex 11.5 16.3 12.1
      vertex 11.5 16.3 14
    endloop
  endfacet
  facet normal 1 0 0
    outer loop
      vertex 11.5 16.3 12.1
      vertex 11.5 9.8 14
      vertex 11.5 9.8 12.1
    endloop
  endfacet
  facet normal 0 -1 0
    outer loop
      vertex 7 -0.7 14
      vertex 9 -0.7 12.1
      vertex 9 -0.7 14
    endloop
  endfacet
  facet normal 0 -1 0
    outer loop
      vertex 7 -0.7 14
      vertex 9 -0.7 10.9
      vertex 9 -0.7 12.1
    endloop
  endfacet
  facet normal 0 -1 0
    outer loop
      vertex 7 -0.7 9
      vertex 9 -0.7 10.9
      vertex 7 -0.7 14
    endloop
  endfacet
  facet normal 0 -1 -0
    outer loop
      vertex 9 -0.7 10.9
      vertex 7 -0.7 9
      vertex 9 -0.7 9
    endloop
  endfacet
  facet normal 1 -0 0
    outer loop
      vertex 9 -0.7 10.9
      vertex 9 9.8 9
      vertex 9 9.8 10.9
    endloop
  endfacet
  facet normal 1 0 0
    outer loop
      vertex 9 9.8 9
      vertex 9 -0.7 10.9
      vertex 9 -0.7 9
    endloop
  endfacet
  facet normal 1 -0 0
    outer loop
      vertex 9 -0.7 14
      vertex 9 9.8 12.1
      vertex 9 9.8 14
    endloop
  endfacet
  facet normal 1 0 0
    outer loop
      vertex 9 9.8 12.1
      vertex 9 -0.7 14
      vertex 9 -0.7 12.1
    endloop
  endfacet
  facet normal 1 -0 0
    outer loop
      vertex 9 9.8 12.1
      vertex 9 16.3 10.9
      vertex 9 16.3 12.1
    endloop
  endfacet
  facet normal 1 0 0
    outer loop
      vertex 9 9.8 12.1
      vertex 9 9.8 10.9
      vertex 9 16.3 10.9
    endloop
  endfacet
  facet normal 1 -0 0
    outer loop
      vertex 9 -0.7 12.1
      vertex 9 9.8 10.9
      vertex 9 9.8 12.1
    endloop
  endfacet
  facet normal 1 0 0
    outer loop
      vertex 9 9.8 10.9
      vertex 9 -0.7 12.1
      vertex 9 -0.7 10.9
    endloop
  endfacet
  facet normal -0 0 1
    outer loop
      vertex 9 16.3 10.9
      vertex 11.5 9.8 10.9
      vertex 11.5 16.3 10.9
    endloop
  endfacet
  facet normal 0 0 1
    outer loop
      vertex 11.5 9.8 10.9
      vertex 9 16.3 10.9
      vertex 9 9.8 10.9
    endloop
  endfacet
  facet normal -0 0 1
    outer loop
      vertex 32.5 16.3 10.9
      vertex 35 9.8 10.9
      vertex 35 16.3 10.9
    endloop
  endfacet
  facet normal 0 0 1
    outer loop
      vertex 35 9.8 10.9
      vertex 32.5 16.3 10.9
      vertex 32.5 9.8 10.9
    endloop
  endfacet
  facet normal 0 0 -1
    outer loop
      vertex 9 9.8 12.1
      vertex 11.5 16.3 12.1
      vertex 11.5 9.8 12.1
    endloop
  endfacet
  facet normal -0 0 -1
    outer loop
      vertex 11.5 16.3 12.1
      vertex 9 9.8 12.1
      vertex 9 16.3 12.1
    endloop
  endfacet
  facet normal 0 0 -1
    outer loop
      vertex 32.5 9.8 12.1
      vertex 35 16.3 12.1
      vertex 35 9.8 12.1
    endloop
  endfacet
  facet normal -0 0 -1
    outer loop
      vertex 35 16.3 12.1
      vertex 32.5 9.8 12.1
      vertex 32.5 16.3 12.1
    endloop
  endfacet
  facet normal 0.707107 0.707107 0
    outer loop
      vertex 37 17.3 14
      vertex 36 18.3 9
      vertex 36 18.3 14
    endloop
  endfacet
  facet normal 0.707107 0.707107 0
    outer loop
      vertex 36 18.3 9
      vertex 37 17.3 14
      vertex 37 17.3 9
    endloop
  endfacet
  facet normal -0.707094 0.707119 0
    outer loop
      vertex 8.14214 18.3 9
      vertex 7 17.1579 14
      vertex 8.14214 18.3 14
    endloop
  endfacet
  facet normal -0.707094 0.707119 0
    outer loop
      vertex 7 17.1579 14
      vertex 8.14214 18.3 9
      vertex 7 17.1579 9
    endloop
  endfacet
  facet normal -1 0 0
    outer loop
      vertex -41.5 -0.7 9
      vertex -41.5 17.1579 14
      vertex -41.5 17.1579 9
    endloop
  endfacet
  facet normal -1 -0 0
    outer loop
      vertex -41.5 17.1579 14
      vertex -41.5 -0.7 9
      vertex -41.5 -0.7 14
    endloop
  endfacet
  facet normal 0 -1 0
    outer loop
      vertex -20.8547 16.3 9
      vertex -37 16.3 10.675
      vertex -37 16.3 9
    endloop
  endfacet
  facet normal 0 -1 0
    outer loop
      vertex -37 16.3 10.675
      vertex -20.8547 16.3 9
      vertex -9.5 16.3 10.675
    endloop
  endfacet
  facet normal 0 -1 0
    outer loop
      vertex -13.4453 16.3 9
      vertex -9.5 16.3 10.675
      vertex -20.8547 16.3 9
    endloop
  endfacet
  facet normal 0 -1 -0
    outer loop
      vertex -9.5 16.3 10.675
      vertex -13.4453 16.3 9
      vertex -9.5 16.3 9
    endloop
  endfacet
  facet normal 0 -1 0
    outer loop
      vertex -37 16.3 12.325
      vertex -9.5 16.3 14
      vertex -37 16.3 14
    endloop
  endfacet
  facet normal 0 -1 -0
    outer loop
      vertex -9.5 16.3 14
      vertex -37 16.3 12.325
      vertex -9.5 16.3 12.325
    endloop
  endfacet
  facet normal 0 -1 0
    outer loop
      vertex -37 16.3 10.675
      vertex -37 16.3 12.325
      vertex -39.5 16.3 12.325
    endloop
  endfacet
  facet normal 0 -1 0
    outer loop
      vertex -37 16.3 12.325
      vertex -37 16.3 10.675
      vertex -9.5 16.3 12.325
    endloop
  endfacet
  facet normal 0 -1 0
    outer loop
      vertex -37 16.3 10.675
      vertex -39.5 16.3 12.325
      vertex -39.5 16.3 10.675
    endloop
  endfacet
  facet normal 0 -1 0
    outer loop
      vertex -9.5 16.3 10.675
      vertex -9.5 16.3 12.325
      vertex -37 16.3 10.675
    endloop
  endfacet
  facet normal 0 -1 0
    outer loop
      vertex -9.5 16.3 12.325
      vertex -9.5 16.3 10.675
      vertex -7 16.3 12.325
    endloop
  endfacet
  facet normal 0 -1 -0
    outer loop
      vertex -7 16.3 12.325
      vertex -9.5 16.3 10.675
      vertex -7 16.3 10.675
    endloop
  endfacet
  facet normal 0 1 -0
    outer loop
      vertex -6 18.3 9
      vertex -40.3579 18.3 14
      vertex -6 18.3 14
    endloop
  endfacet
  facet normal 0 1 0
    outer loop
      vertex -40.3579 18.3 14
      vertex -6 18.3 9
      vertex -40.3579 18.3 9
    endloop
  endfacet
  facet normal 1 -0 0
    outer loop
      vertex -5 -0.7 14
      vertex -5 9.8 9
      vertex -5 9.8 14
    endloop
  endfacet
  facet normal 1 0 0
    outer loop
      vertex -5 9.8 9
      vertex -5 -0.7 14
      vertex -5 -0.7 9
    endloop
  endfacet
  facet normal -1 0 0
    outer loop
      vertex -5 17.3 9
      vertex -5 18.3 14
      vertex -5 18.3 9
    endloop
  endfacet
  facet normal -1 -0 0
    outer loop
      vertex -5 18.3 14
      vertex -5 17.3 9
      vertex -5 17.3 14
    endloop
  endfacet
  facet normal -1 0 0
    outer loop
      vertex -9.5 9.8 9
      vertex -9.5 16.3 10.675
      vertex -9.5 16.3 9
    endloop
  endfacet
  facet normal -1 -0 0
    outer loop
      vertex -9.5 16.3 10.675
      vertex -9.5 9.8 9
      vertex -9.5 9.8 10.675
    endloop
  endfacet
  facet normal -1 0 0
    outer loop
      vertex -9.5 9.8 12.325
      vertex -9.5 16.3 14
      vertex -9.5 16.3 12.325
    endloop
  endfacet
  facet normal -1 -0 0
    outer loop
      vertex -9.5 16.3 14
      vertex -9.5 9.8 12.325
      vertex -9.5 9.8 14
    endloop
  endfacet
  facet normal 0 -1 0
    outer loop
      vertex -9.5 9.8 9
      vertex -7 9.8 10.675
      vertex -9.5 9.8 10.675
    endloop
  endfacet
  facet normal 0 -1 -0
    outer loop
      vertex -7 9.8 10.675
      vertex -9.5 9.8 9
      vertex -7 9.8 9
    endloop
  endfacet
  facet normal 0 -1 0
    outer loop
      vertex -9.5 9.8 12.325
      vertex -7 9.8 14
      vertex -9.5 9.8 14
    endloop
  endfacet
  facet normal 0 -1 -0
    outer loop
      vertex -7 9.8 14
      vertex -9.5 9.8 12.325
      vertex -7 9.8 12.325
    endloop
  endfacet
  facet normal -1 0 0
    outer loop
      vertex -7 -0.7 9
      vertex -7 9.8 10.675
      vertex -7 9.8 9
    endloop
  endfacet
  facet normal -1 -0 0
    outer loop
      vertex -7 9.8 10.675
      vertex -7 -0.7 9
      vertex -7 -0.7 10.675
    endloop
  endfacet
  facet normal -1 0 0
    outer loop
      vertex -7 -0.7 12.325
      vertex -7 9.8 14
      vertex -7 9.8 12.325
    endloop
  endfacet
  facet normal -1 -0 0
    outer loop
      vertex -7 9.8 14
      vertex -7 -0.7 12.325
      vertex -7 -0.7 14
    endloop
  endfacet
  facet normal -1 0 0
    outer loop
      vertex -7 9.8 10.675
      vertex -7 16.3 12.325
      vertex -7 16.3 10.675
    endloop
  endfacet
  facet normal -1 0 0
    outer loop
      vertex -7 9.8 10.675
      vertex -7 9.8 12.325
      vertex -7 16.3 12.325
    endloop
  endfacet
  facet normal -1 0 0
    outer loop
      vertex -7 -0.7 10.675
      vertex -7 9.8 12.325
      vertex -7 9.8 10.675
    endloop
  endfacet
  facet normal -1 -0 0
    outer loop
      vertex -7 9.8 12.325
      vertex -7 -0.7 10.675
      vertex -7 -0.7 12.325
    endloop
  endfacet
  facet normal 0 -1 0
    outer loop
      vertex -7 -0.7 12.325
      vertex -5 -0.7 14
      vertex -7 -0.7 14
    endloop
  endfacet
  facet normal 0 -1 0
    outer loop
      vertex -7 -0.7 10.675
      vertex -5 -0.7 14
      vertex -7 -0.7 12.325
    endloop
  endfacet
  facet normal 0 -1 0
    outer loop
      vertex -5 -0.7 9
      vertex -7 -0.7 10.675
      vertex -7 -0.7 9
    endloop
  endfacet
  facet normal 0 -1 0
    outer loop
      vertex -7 -0.7 10.675
      vertex -5 -0.7 9
      vertex -5 -0.7 14
    endloop
  endfacet
  facet normal 0 -1 0
    outer loop
      vertex -39.5 9.8 9
      vertex -37 9.8 10.675
      vertex -39.5 9.8 10.675
    endloop
  endfacet
  facet normal 0 -1 -0
    outer loop
      vertex -37 9.8 10.675
      vertex -39.5 9.8 9
      vertex -37 9.8 9
    endloop
  endfacet
  facet normal 0 -1 0
    outer loop
      vertex -39.5 9.8 12.325
      vertex -37 9.8 14
      vertex -39.5 9.8 14
    endloop
  endfacet
  facet normal 0 -1 -0
    outer loop
      vertex -37 9.8 14
      vertex -39.5 9.8 12.325
      vertex -37 9.8 12.325
    endloop
  endfacet
  facet normal 1 -0 0
    outer loop
      vertex -37 9.8 10.675
      vertex -37 16.3 9
      vertex -37 16.3 10.675
    endloop
  endfacet
  facet normal 1 0 0
    outer loop
      vertex -37 16.3 9
      vertex -37 9.8 10.675
      vertex -37 9.8 9
    endloop
  endfacet
  facet normal 1 -0 0
    outer loop
      vertex -37 9.8 14
      vertex -37 16.3 12.325
      vertex -37 16.3 14
    endloop
  endfacet
  facet normal 1 0 0
    outer loop
      vertex -37 16.3 12.325
      vertex -37 9.8 14
      vertex -37 9.8 12.325
    endloop
  endfacet
  facet normal 0 -1 0
    outer loop
      vertex -41.5 -0.7 14
      vertex -39.5 -0.7 12.325
      vertex -39.5 -0.7 14
    endloop
  endfacet
  facet normal 0 -1 0
    outer loop
      vertex -41.5 -0.7 14
      vertex -39.5 -0.7 10.675
      vertex -39.5 -0.7 12.325
    endloop
  endfacet
  facet normal 0 -1 0
    outer loop
      vertex -41.5 -0.7 9
      vertex -39.5 -0.7 10.675
      vertex -41.5 -0.7 14
    endloop
  endfacet
  facet normal 0 -1 -0
    outer loop
      vertex -39.5 -0.7 10.675
      vertex -41.5 -0.7 9
      vertex -39.5 -0.7 9
    endloop
  endfacet
  facet normal 1 -0 0
    outer loop
      vertex -39.5 -0.7 10.675
      vertex -39.5 9.8 9
      vertex -39.5 9.8 10.675
    endloop
  endfacet
  facet normal 1 0 0
    outer loop
      vertex -39.5 9.8 9
      vertex -39.5 -0.7 10.675
      vertex -39.5 -0.7 9
    endloop
  endfacet
  facet normal 1 -0 0
    outer loop
      vertex -39.5 -0.7 14
      vertex -39.5 9.8 12.325
      vertex -39.5 9.8 14
    endloop
  endfacet
  facet normal 1 0 0
    outer loop
      vertex -39.5 9.8 12.325
      vertex -39.5 -0.7 14
      vertex -39.5 -0.7 12.325
    endloop
  endfacet
  facet normal 1 -0 0
    outer loop
      vertex -39.5 9.8 12.325
      vertex -39.5 16.3 10.675
      vertex -39.5 16.3 12.325
    endloop
  endfacet
  facet normal 1 0 0
    outer loop
      vertex -39.5 9.8 12.325
      vertex -39.5 9.8 10.675
      vertex -39.5 16.3 10.675
    endloop
  endfacet
  facet normal 1 -0 0
    outer loop
      vertex -39.5 -0.7 12.325
      vertex -39.5 9.8 10.675
      vertex -39.5 9.8 12.325
    endloop
  endfacet
  facet normal 1 0 0
    outer loop
      vertex -39.5 9.8 10.675
      vertex -39.5 -0.7 12.325
      vertex -39.5 -0.7 10.675
    endloop
  endfacet
  facet normal -0 0 1
    outer loop
      vertex -39.5 16.3 10.675
      vertex -37 9.8 10.675
      vertex -37 16.3 10.675
    endloop
  endfacet
  facet normal 0 0 1
    outer loop
      vertex -37 9.8 10.675
      vertex -39.5 16.3 10.675
      vertex -39.5 9.8 10.675
    endloop
  endfacet
  facet normal -0 0 1
    outer loop
      vertex -9.5 16.3 10.675
      vertex -7 9.8 10.675
      vertex -7 16.3 10.675
    endloop
  endfacet
  facet normal 0 0 1
    outer loop
      vertex -7 9.8 10.675
      vertex -9.5 16.3 10.675
      vertex -9.5 9.8 10.675
    endloop
  endfacet
  facet normal 0 0 -1
    outer loop
      vertex -39.5 9.8 12.325
      vertex -37 16.3 12.325
      vertex -37 9.8 12.325
    endloop
  endfacet
  facet normal -0 0 -1
    outer loop
      vertex -37 16.3 12.325
      vertex -39.5 9.8 12.325
      vertex -39.5 16.3 12.325
    endloop
  endfacet
  facet normal 0 0 -1
    outer loop
      vertex -9.5 9.8 12.325
      vertex -7 16.3 12.325
      vertex -7 9.8 12.325
    endloop
  endfacet
  facet normal -0 0 -1
    outer loop
      vertex -7 16.3 12.325
      vertex -9.5 9.8 12.325
      vertex -9.5 16.3 12.325
    endloop
  endfacet
  facet normal 0.707107 0.707107 0
    outer loop
      vertex -5 17.3 14
      vertex -6 18.3 9
      vertex -6 18.3 14
    endloop
  endfacet
  facet normal 0.707107 0.707107 0
    outer loop
      vertex -6 18.3 9
      vertex -5 17.3 14
      vertex -5 17.3 9
    endloop
  endfacet
  facet normal -0.707107 0.707107 0
    outer loop
      vertex -41.5 17.1579 9
      vertex -40.3579 18.3 14
      vertex -40.3579 18.3 9
    endloop
  endfacet
  facet normal -0.707107 0.707107 0
    outer loop
      vertex -40.3579 18.3 14
      vertex -41.5 17.1579 9
      vertex -41.5 17.1579 14
    endloop
  endfacet
  facet normal 0 -1 0
    outer loop
      vertex -5 9.8 9
      vertex 7 9.8 14
      vertex -5 9.8 14
    endloop
  endfacet
  facet normal 0 -1 -0
    outer loop
      vertex 7 9.8 14
      vertex -5 9.8 9
      vertex 7 9.8 9
    endloop
  endfacet
  facet normal 0 1 -0
    outer loop
      vertex 7 18.3 9
      vertex -5 18.3 14
      vertex 7 18.3 14
    endloop
  endfacet
  facet normal 0 1 0
    outer loop
      vertex -5 18.3 14
      vertex 7 18.3 9
      vertex -5 18.3 9
    endloop
  endfacet
  facet normal -0.866031 0.499989 0
    outer loop
      vertex -19.7039 18.2933 5
      vertex -20.8547 16.3 9
      vertex -19.7039 18.2933 9
    endloop
  endfacet
  facet normal -0.866026 0.5 6.87516e-06
    outer loop
      vertex -20.8586 16.2933 5
      vertex -20.8547 16.3 9
      vertex -19.7039 18.2933 5
    endloop
  endfacet
  facet normal -0.864246 0.503069 0
    outer loop
      vertex -20.8547 16.3 9
      vertex -20.8586 16.2933 5
      vertex -20.8586 16.2933 9
    endloop
  endfacet
  facet normal 0.866031 0.499989 0
    outer loop
      vertex -13.4453 16.3 9
      vertex -14.5961 18.2933 5
      vertex -14.5961 18.2933 9
    endloop
  endfacet
  facet normal 0.864246 0.503069 -0
    outer loop
      vertex -13.4414 16.2933 5
      vertex -13.4453 16.3 9
      vertex -13.4414 16.2933 9
    endloop
  endfacet
  facet normal 0.866026 0.5 6.87516e-06
    outer loop
      vertex -13.4453 16.3 9
      vertex -13.4414 16.2933 5
      vertex -14.5961 18.2933 5
    endloop
  endfacet
  facet normal 0 0 -1
    outer loop
      vertex -13.4414 16.2933 5
      vertex -19.7039 18.2933 5
      vertex -14.5961 18.2933 5
    endloop
  endfacet
  facet normal 0 -0 -1
    outer loop
      vertex -19.7039 18.2933 5
      vertex -13.4414 16.2933 5
      vertex -20.8586 16.2933 5
    endloop
  endfacet
  facet normal 0 -1 0
    outer loop
      vertex -20.8586 16.2933 5
      vertex -13.4414 16.2933 9
      vertex -20.8586 16.2933 9
    endloop
  endfacet
  facet normal 0 -1 -0
    outer loop
      vertex -13.4414 16.2933 9
      vertex -20.8586 16.2933 5
      vertex -13.4414 16.2933 5
    endloop
  endfacet
  facet normal 0 1 -0
    outer loop
      vertex -14.5961 18.2933 5
      vertex -19.7039 18.2933 9
      vertex -14.5961 18.2933 9
    endloop
  endfacet
  facet normal 0 1 0
    outer loop
      vertex -19.7039 18.2933 9
      vertex -14.5961 18.2933 5
      vertex -19.7039 18.2933 5
    endloop
  endfacet
  facet normal -0.866031 0.499989 0
    outer loop
      vertex 14.5961 18.2933 5
      vertex 13.4453 16.3 9
      vertex 14.5961 18.2933 9
    endloop
  endfacet
  facet normal -0.866026 0.5 6.87516e-06
    outer loop
      vertex 13.4414 16.2933 5
      vertex 13.4453 16.3 9
      vertex 14.5961 18.2933 5
    endloop
  endfacet
  facet normal -0.864246 0.503069 0
    outer loop
      vertex 13.4453 16.3 9
      vertex 13.4414 16.2933 5
      vertex 13.4414 16.2933 9
    endloop
  endfacet
  facet normal 0.866031 0.499989 0
    outer loop
      vertex 20.8547 16.3 9
      vertex 19.7039 18.2933 5
      vertex 19.7039 18.2933 9
    endloop
  endfacet
  facet normal 0.864246 0.503069 -0
    outer loop
      vertex 20.8586 16.2933 5
      vertex 20.8547 16.3 9
      vertex 20.8586 16.2933 9
    endloop
  endfacet
  facet normal 0.866026 0.5 6.87516e-06
    outer loop
      vertex 20.8547 16.3 9
      vertex 20.8586 16.2933 5
      vertex 19.7039 18.2933 5
    endloop
  endfacet
  facet normal 0 0 -1
    outer loop
      vertex 20.8586 16.2933 5
      vertex 14.5961 18.2933 5
      vertex 19.7039 18.2933 5
    endloop
  endfacet
  facet normal 0 -0 -1
    outer loop
      vertex 14.5961 18.2933 5
      vertex 20.8586 16.2933 5
      vertex 13.4414 16.2933 5
    endloop
  endfacet
  facet normal 0 -1 0
    outer loop
      vertex 13.4414 16.2933 5
      vertex 20.8586 16.2933 9
      vertex 13.4414 16.2933 9
    endloop
  endfacet
  facet normal 0 -1 -0
    outer loop
      vertex 20.8586 16.2933 9
      vertex 13.4414 16.2933 5
      vertex 20.8586 16.2933 5
    endloop
  endfacet
  facet normal 0 1 -0
    outer loop
      vertex 19.7039 18.2933 5
      vertex 14.5961 18.2933 9
      vertex 19.7039 18.2933 9
    endloop
  endfacet
  facet normal 0 1 0
    outer loop
      vertex 14.5961 18.2933 9
      vertex 19.7039 18.2933 5
      vertex 14.5961 18.2933 5
    endloop
  endfacet
endsolid OpenSCAD_Model
